<?xml version="1.0" encoding="UTF-8"?>
<svg xmlns="http://www.w3.org/2000/svg" xmlns:xlink="http://www.w3.org/1999/xlink" version="1.1" id="Layer_1" x="0px" y="0px" width="1000px" height="460px" viewBox="0 0 1000 460" xml:space="preserve">
<path fill-rule="evenodd" clip-rule="evenodd" fill="#00205B" d="M967.659,127.667c5.655-1.825,31.513-7.778,32.331-40.652  l0.01-1.189c-0.151-24.965-24.684-45.852-63.572-45.852c-31.099,0-54.693,17.044-65.702,44.24l38.183,11.595  c4.614-9.947,11.963-19.292,26.561-19.292c12.447,0,17.596,9.275,17.596,15.138c0,6.959-4.362,17.758-20.32,18.034h-11.365  l-12.229-0.16l-6.003,35.455c3.789-0.264,14.347,0,16.502,0c13.236,0,25.789,5.009,25.789,16.64  c0,12.725-8.987,20.732-23.872,20.732c-14.274,0-23.781-10.523-25.233-22.778l-40.651,9.279  c3.554,23.457,26.183,49.775,66.148,49.775c45.729,0,71.746-23.999,71.746-54.817C993.575,150.303,983.905,131.991,967.659,127.667"></path>
<g>
	<defs>
		<path id="SVGID_1_" d="M0,230.008C0,355.646,221.109,457.49,493.852,457.49c124.544,0,238.298-21.229,325.169-56.272    c-59.398,9.6-124.763,14.908-193.413,14.908c-272.304,0-493.043-83.522-493.043-186.582    c0-103.046,220.739-186.579,493.043-186.579c67.194,0,131.269,5.099,189.64,14.317C728.862,23.14,616.594,2.51,493.852,2.51    C221.109,2.51,0,104.358,0,230.008"></path>
	</defs>
	<clipPath id="SVGID_2_">
		<use xlink:href="#SVGID_1_" overflow="visible"></use>
	</clipPath>
	
		<linearGradient id="SVGID_3_" gradientUnits="userSpaceOnUse" x1="-4.882813e-004" y1="460" x2="0.9995" y2="460" gradientTransform="matrix(-819.0217 0 0 819.0217 819 -376519.9688)">
		<stop offset="0" style="stop-color:#C0D730"></stop>
		<stop offset="0.5" style="stop-color:#8CC540"></stop>
		<stop offset="1" style="stop-color:#007A40"></stop>
	</linearGradient>
	<rect y="2.51" clip-path="url(#SVGID_2_)" fill="url(#SVGID_3_)" width="819.021" height="454.98"></rect>
</g>
<path fill-rule="evenodd" clip-rule="evenodd" fill="#00205B" d="M787.641,107.311c-57.668-4.223-78.899,44.039-78.899,44.039  c-6.601-34.312-34.729-44.039-53.88-44.039c-34.745,0-56.319,14.397-72.865,41.861l6.135-36.161h-79.413l-41.161,229.293h84.609  l18.382-100.853c8.401-45.667,11.978-71.434,37.292-71.434c9.198,0,16.685,9.116,16.685,19.583c0,4.764-1.603,16.175-2.792,23.788  l-23.18,128.915h86.006l17.976-100.853c8.388-47.571,10.871-71.95,37.776-71.95c9.184,0,13.985,8.687,13.985,20.583  c0,6.17-0.809,14.746-2.4,23.304l-23.179,128.915h86.236l25.567-139.39c3.196-18.07,4.396-26.629,4.396-37.566  C844.917,129.185,819.926,109.675,787.641,107.311"></path>
<path fill-rule="evenodd" clip-rule="evenodd" fill="#00205B" d="M471.083,189.74c-16.913-15.856-31.395-25.213-49.891-25.213  c-32.236,0-59.143,25.557-59.143,61.497c0,31.179,19.025,50.734,48.609,50.734c16.386,0,30.208-4.522,49.223-17.733l-14.1,74.191  c-24.644,7.116-40.314,10.243-59.859,10.243c-66.059,0-109.04-47.063-109.04-115.76c0-76.625,56.642-128.304,132.218-128.304  c25.891,0,51.749,8.18,75.001,19.8L471.083,189.74z"></path>
</svg>
